<mxfile host="Electron" modified="2024-02-07T20:14:02.544Z" agent="Mozilla/5.0 (X11; Linux x86_64) AppleWebKit/537.36 (KHTML, like Gecko) draw.io/23.0.2 Chrome/120.0.6099.109 Electron/28.1.0 Safari/537.36" etag="ab9cU0MGxy1gl2qIolLJ" version="23.0.2" type="device">
  <diagram name="Page-1" id="VyKXyNdSwEKBPReCsGmV">
    <mxGraphModel dx="470" dy="991" grid="1" gridSize="10" guides="1" tooltips="1" connect="1" arrows="1" fold="1" page="1" pageScale="1" pageWidth="827" pageHeight="1169" math="0" shadow="0">
      <root>
        <mxCell id="0" />
        <mxCell id="1" parent="0" />
      </root>
    </mxGraphModel>
  </diagram>
</mxfile>
